<svg viewBox="233 198 388 144" fill="none" xmlns="http://www.w3.org/2000/svg"><path d="M253 284.898C253 293.443 260.083 301.088 271.101 301.088C280.771 301.088 286.167 295.917 288.528 292.094C288.528 296.029 288.528 299.402 288.528 299.402H298.872C298.872 299.402 298.76 295.242 298.76 290.52V263.424C298.76 252.855 292.463 243.636 276.273 243.636C264.58 243.636 255.249 250.832 254.124 261.175L264.243 263.536C264.918 257.24 269.078 252.63 276.498 252.63C284.706 252.63 288.191 257.015 288.191 262.3C288.191 264.211 287.292 265.897 284.031 266.347L269.415 268.483C260.083 269.832 253 275.229 253 284.898ZM272.563 292.206C267.166 292.206 263.793 288.384 263.793 284.336C263.793 279.502 267.166 276.916 271.664 276.241L288.191 273.768V276.241C288.191 288.046 281.22 292.206 272.563 292.206Z" fill="#111111"/><path d="M323.133 228.233H312.564V245.322H305.144H302.221V254.879H312.564V284.561C312.564 294.343 318.411 299.964 327.63 299.964C331.228 299.964 333.926 299.29 334.826 298.952V289.958C333.926 290.183 332.015 290.407 330.666 290.407C325.157 290.407 323.133 287.934 323.133 282.987V254.879H346.458V245.322H323.133V228.233Z" fill="#111111"/><path d="M359.15 322.001L394.341 245.322H382.986L366.796 282.65L349.931 245.322H337.788L361.062 293.443L347.57 322.001H359.15Z" fill="#111111"/><path d="M408.181 322.001V292.094C411.104 296.928 417.4 300.864 425.72 300.864C441.573 300.864 450.905 288.384 450.905 272.306C450.905 256.566 442.248 244.086 426.057 244.086C417.288 244.086 410.879 248.358 407.956 253.755V245.322H397.725V322.001H408.181ZM440.111 272.306C440.111 283.437 433.928 291.419 424.146 291.419C414.477 291.419 408.068 283.437 408.068 272.306C408.068 261.513 414.477 253.417 424.146 253.417C434.04 253.417 440.111 261.513 440.111 272.306Z" fill="#111111"/><path d="M468.624 299.402V245.322H458.168V299.402H468.624ZM455.807 230.094C455.807 234.254 459.18 237.627 463.34 237.627C467.612 237.627 470.985 234.254 470.985 230.094C470.985 225.822 467.612 222.449 463.40 222.449C459.18 222.449 455.807 225.822 455.807 230.094Z" fill="#111111"/><path d="M503.113 253.417C512.332 253.417 516.268 259.601 517.617 264.885L527.173 260.838C524.925 252.63 517.504 243.636 503.113 243.636C487.71 243.636 475.905 255.441 475.905 272.306C475.905 288.721 487.485 301.088 503.225 301.088C517.279 301.088 525.037 291.981 527.623 284.224L518.291 280.176C517.055 284.449 513.344 291.307 503.225 291.307C494.456 291.307 486.698 284.673 486.698 272.306C486.698 259.714 494.568 253.417 503.113 253.417Z" fill="#111111"/><path d="M540.729 271.969C540.729 260.838 547.025 253.193 556.694 253.193C566.363 253.193 572.209 260.838 572.209 271.969C572.209 283.099 566.25 291.532 556.581 291.532C546.463 291.532 540.729 283.099 540.729 271.969ZM572.322 292.094C572.322 295.354 572.322 299.402 572.322 299.402H582.553C582.441 298.39 582.553 294.23 582.553 289.396V245.322H572.097V252.968C570.298 248.583 565.126 243.861 555.569 243.861C540.279 243.861 529.935 256.678 529.935 271.969C529.935 288.046 539.717 300.864 555.569 300.864C564.002 300.864 569.736 296.366 572.322 291.194V292.094Z" fill="#111111"/><path d="M601.33 299.402V218.002H590.761V299.402H601.33Z" fill="#111111"/></svg>
