<?xml version="1.0" encoding="utf-8"?>
<!-- Generator: Adobe Illustrator 19.0.0, SVG Export Plug-In . SVG Version: 6.00 Build 0)  -->
<svg version="1.1" id="layer" xmlns="http://www.w3.org/2000/svg" xmlns:xlink="http://www.w3.org/1999/xlink" x="0px" y="0px"
	 viewBox="-135 244 615 70" style="enable-background:new -135 244 615 70;" xml:space="preserve">
<style type="text/css">
	.st0{fill:#F8130E;}
	.st1{fill:#9AEFDF;}
	.st2{fill:#44C1C1;}
	.st3{fill:#072735;}
	.st4{fill:#121212;}
</style>
<rect x="-127" y="249" class="st0" width="60" height="15"/>
<rect x="-127" y="264" class="st1" width="60" height="15"/>
<rect x="-127" y="279" class="st2" width="60" height="15"/>
<rect x="-127" y="294" class="st3" width="60" height="15"/>
<path class="st4" d="M-13.4,266.7v10H0.2v4.5h-13.6v14.5h-5.5v-33.6H3.9v4.5L-13.4,266.7L-13.4,266.7z M34.3,262.2
	c3.2,0,4.5,0.5,5.9,1.4c1.8,1.8,3.2,4.1,3.2,15.4s-1.4,13.6-3.2,15.4c-1.4,0.9-2.3,1.4-5.9,1.4h-10c-3.2,0-4.5-0.5-5.9-1.4
	c-1.8-1.8-3.2-4.1-3.2-15.4s1.4-13.6,3.2-15.4c1.4-0.9,2.3-1.4,5.9-1.4H34.3z M22,290.8c0.5,0.5,0.9,0.5,2.7,0.5h9.1
	c1.8,0,2.3,0,2.7-0.5c0.5-0.5,1.4-1.8,1.4-11.8c0-9.5-0.9-11.4-1.4-11.8c-0.5-0.5-0.9-0.5-2.7-0.5h-9.1c-1.8,0-2.3,0-2.7,0.5
	s-1.4,1.8-1.4,11.8C21.1,288.5,21.6,290.4,22,290.8z M85.2,281.7c0,8.6-0.9,10-2.7,11.8c-1.8,1.4-4.1,1.8-8.6,1.8h-5
	c-4.5,0-6.8-0.5-8.6-1.8c-1.8-1.8-2.7-3.6-2.7-11.8v-19.5h5.5v20.9c0,5.9,0.5,6.8,1.4,7.3c0.5,0.5,1.4,0.9,5.5,0.9h3.2
	c3.6,0,4.5,0,5.5-0.9c0.9-0.9,0.9-0.9,0.9-7.3v-20.9h5.5v19.5H85.2z M128.8,295.8h-5.9c-1.4,0-1.8-0.5-2.7-1.4l-13.6-25h-0.9v26.3
	h-5.5v-33.6h6.4c1.4,0,1.8,0.5,2.7,1.4l13.2,23.6h0.9v-25.4h5.5V295.8z M159.7,262.2c4.1,0,6.8,0.5,8.6,2.3
	c2.3,1.8,3.6,6.4,3.6,14.5c0,8.2-0.9,12.3-3.6,14.5c-1.8,1.8-4.1,2.3-8.6,2.3h-15.4v-33.6L159.7,262.2L159.7,262.2z M163.7,267.6
	c-0.9-0.9-2.3-0.9-4.1-0.9h-9.5v24.5h9.5c2.3,0,3.2,0,4.1-0.9c1.4-1.4,1.8-3.6,1.8-10.9C166,271.3,165.1,269,163.7,267.6z
	 M209.6,295.8h-24.1v-33.6h24.1v4.5H191v9.1h15.4v4.5H191v10.4h18.6V295.8z M242.8,282.6c-0.5-0.5-1.8-0.5-3.6-0.5h-10v14.1h-5.5
	v-33.6h19.1c2.3,0,4.1,0.5,5,1.4c1.4,1.4,2.3,3.2,2.3,8.2c0,5.9-1.8,7.7-5.9,8.2l0,0c3.6,0.5,5,1.4,5.5,6.4c0,4.5,0.5,7.7,0.5,9.5
	h-5.5c-0.5-2.3-0.5-5.5-0.5-9.1C243.7,284,243.2,283.1,242.8,282.6z M241,277.6c1.4,0,1.8-0.5,2.3-0.5c0.5-0.5,0.9-1.4,0.9-5
	c0-3.6-0.5-4.5-0.9-5s-0.9-0.5-2.3-0.5h-11.8v10.9L241,277.6L241,277.6z M288.2,294.4c-0.9,0.9-2.7,1.4-5.5,1.4h-11.8
	c-2.7,0-4.5-0.5-5.5-1.4c-1.4-1.4-1.8-3.2-1.8-9.1h5.5c0,4.1,0.5,5,0.5,5.5c0.5,0.5,0.9,0.5,2.3,0.5h10c1.4,0,1.8,0,2.3-0.5
	s0.5-1.8,0.5-4.5c0-2.3,0-3.2-0.5-3.6c-0.5-0.5-0.9-0.5-2.3-0.5l-10.9-0.9c-2.7-0.5-4.1-0.9-5-1.8c-1.4-1.4-1.8-2.7-1.8-7.3
	c0-4.5,0.5-6.4,2.3-8.2c0.9-0.9,2.7-1.4,5.5-1.4h10.9c2.7,0,4.5,0.5,5.5,1.4c1.4,1.4,1.8,2.7,1.8,9.1h-5.5c0-4.1-0.5-5-0.5-5
	c-0.5-0.5-0.9-0.5-2.3-0.5h-9.1c-1.4,0-1.8,0-2.3,0.5s-0.5,1.8-0.5,4.5c0,2.3,0,3.2,0.5,3.6c0.5,0.5,0.9,0.5,2.3,0.5l10.9,0.9
	c2.3,0,4.1,0.5,5,1.8c1.4,1.4,1.8,2.7,1.8,7.7C290.5,290.8,290,292.6,288.2,294.4z M328.6,266.7v10h13.6v4.5h-13.6v14.5h-5.5v-33.6
	h22.7v4.5L328.6,266.7L328.6,266.7z M386.3,281.7c0,8.6-0.9,10-2.7,11.8c-1.8,1.4-4.1,1.8-8.6,1.8h-5c-4.5,0-6.8-0.5-8.6-1.8
	c-1.8-1.8-2.7-3.6-2.7-11.8v-19.5h5.5v20.9c0,5.9,0.5,6.8,1.4,7.3c0.5,0.5,1.4,0.9,5.5,0.9h3.2c3.6,0,4.5,0,5.5-0.9
	c0.9-0.9,0.9-0.9,0.9-7.3v-20.9h5.5v19.5H386.3z M429.9,295.8H424c-1.4,0-1.8-0.5-2.7-1.4l-13.6-25h-0.9v26.3h-5.5v-33.6h6.4
	c1.4,0,1.8,0.5,2.7,1.4l13.2,23.6h0.9v-25.4h5.5V295.8z M460.8,262.2c4.1,0,6.8,0.5,8.6,2.3c2.3,1.8,3.6,6.4,3.6,14.5
	c0,8.2-0.9,12.3-3.6,14.5c-1.8,1.8-4.1,2.3-8.6,2.3h-15.4v-33.6L460.8,262.2L460.8,262.2z M464.9,267.6c-0.9-0.9-2.3-0.9-4.1-0.9
	h-9.5v24.5h9.5c2.3,0,3.2,0,4.1-0.9c1.4-1.4,1.8-3.6,1.8-10.9C466.7,271.3,466.2,269,464.9,267.6z"/>
</svg>
