<svg width="20" height="20" viewBox="0 0 20 20" fill="none" xmlns="http://www.w3.org/2000/svg">
<path d="M10 14.9993C9.22222 14.9993 8.47917 15.1209 7.77083 15.3639C7.0625 15.607 6.41667 15.9716 5.83333 16.4577V16.666H14.1667V16.4577C13.5833 15.9716 12.9375 15.607 12.2292 15.3639C11.5208 15.1209 10.7778 14.9993 10 14.9993ZM4.16667 15.7077C4.91667 14.9716 5.78819 14.3917 6.78125 13.9681C7.77431 13.5445 8.84722 13.3327 10 13.3327C11.1528 13.3327 12.2257 13.5445 13.2188 13.9681C14.2118 14.3917 15.0833 14.9716 15.8333 15.7077V4.99935H4.16667V15.7077ZM7.9375 10.8118C7.36806 10.2424 7.08333 9.5549 7.08333 8.74935C7.08333 7.94379 7.36806 7.25629 7.9375 6.68685C8.50694 6.1174 9.19444 5.83268 10 5.83268C10.8056 5.83268 11.4931 6.1174 12.0625 6.68685C12.6319 7.25629 12.9167 7.94379 12.9167 8.74935C12.9167 9.5549 12.6319 10.2424 12.0625 10.8118C11.4931 11.3813 10.8056 11.666 10 11.666C9.19444 11.666 8.50694 11.3813 7.9375 10.8118ZM10.8854 9.63477C11.1285 9.39171 11.25 9.09657 11.25 8.74935C11.25 8.40213 11.1285 8.10699 10.8854 7.86393C10.6424 7.62088 10.3472 7.49935 10 7.49935C9.65278 7.49935 9.35764 7.62088 9.11458 7.86393C8.87153 8.10699 8.75 8.40213 8.75 8.74935C8.75 9.09657 8.87153 9.39171 9.11458 9.63477C9.35764 9.87782 9.65278 9.99935 10 9.99935C10.3472 9.99935 10.6424 9.87782 10.8854 9.63477ZM4.16667 18.3327C3.70833 18.3327 3.31597 18.1695 2.98958 17.8431C2.66319 17.5167 2.5 17.1243 2.5 16.666V4.99935C2.5 4.54102 2.66319 4.14865 2.98958 3.82227C3.31597 3.49588 3.70833 3.33268 4.16667 3.33268H5V1.66602H6.66667V3.33268H13.3333V1.66602H15V3.33268H15.8333C16.2917 3.33268 16.684 3.49588 17.0104 3.82227C17.3368 4.14865 17.5 4.54102 17.5 4.99935V16.666C17.5 17.1243 17.3368 17.5167 17.0104 17.8431C16.684 18.1695 16.2917 18.3327 15.8333 18.3327H4.16667ZM10 16.666H14.1667H5.83333H10Z" fill="#16160B"/>
</svg>
