<svg width="20" height="20" viewBox="0 0 20 20" fill="none" xmlns="http://www.w3.org/2000/svg">
<path d="M15.0007 0.833984C15.0007 1.43033 14.9472 1.98355 14.8469 2.50065H6.86059C7.01217 3.10643 7.25063 3.65301 7.56787 4.16732H14.3179C13.444 6.09792 11.8232 7.49541 10.0007 8.93957C7.27487 6.77977 5.00065 4.72436 5.00065 0.833984H3.33398C3.33398 5.38918 6.00909 7.88694 8.6559 10.0007C6.00909 12.1144 3.33398 14.6122 3.33398 19.1673H5.00065C5.00065 15.0343 7.56741 12.9723 10.5155 10.6559L10.592 10.5958C13.4582 8.34423 16.6673 5.82319 16.6673 0.833984H15.0007ZM14.8469 17.5008H6.86059C7.01217 16.8951 7.25063 16.3485 7.56787 15.8342H14.3179C13.6622 14.3857 12.5862 13.2372 11.3198 12.1441C11.7642 11.7937 12.2112 11.4466 12.6516 11.0912C14.8056 12.9991 16.6673 15.3673 16.6673 19.1675H15.0007C15.0007 18.5712 14.9472 18.0179 14.8469 17.5008Z" fill="#16160B"/>
</svg>
