<svg width="20" height="20" viewBox="0 0 20 20" fill="none" xmlns="http://www.w3.org/2000/svg">
<path d="M3.33268 18.3327C2.87435 18.3327 2.48213 18.1696 2.15602 17.8435C1.8299 17.5174 1.66657 17.1249 1.66602 16.666V9.41602C1.66602 9.08268 1.75629 8.77713 1.93685 8.49935C2.1174 8.22157 2.3674 8.01324 2.68685 7.87435L6.33268 6.33268C6.61046 6.22157 6.87435 6.2424 7.12435 6.39518C7.37435 6.54796 7.49935 6.77713 7.49935 7.08268V7.49935L10.5202 6.29102C10.798 6.1799 11.0582 6.20768 11.301 6.37435C11.5438 6.54102 11.6655 6.77018 11.666 7.06185V8.33268H18.3327V16.666C18.3327 17.1243 18.1696 17.5168 17.8435 17.8435C17.5174 18.1702 17.1249 18.3332 16.666 18.3327H3.33268ZM3.33268 16.666H16.666V9.99935H9.99935V8.29102L5.83268 9.95768V8.33268L3.33268 9.43685V16.666ZM9.16602 14.9993H10.8327V11.666H9.16602V14.9993ZM5.83268 14.9993H7.49935V11.666H5.83268V14.9993ZM12.4993 14.9993H14.166V11.666H12.4993V14.9993ZM18.3327 8.33268H14.166L14.916 2.39518C14.9438 2.18685 15.0341 2.01324 15.1868 1.87435C15.3396 1.73546 15.5202 1.66602 15.7285 1.66602H16.7702C16.9785 1.66602 17.1591 1.73546 17.3118 1.87435C17.4646 2.01324 17.5549 2.18685 17.5827 2.39518L18.3327 8.33268Z" fill="#16160B"/>
</svg>
