<svg width="20" height="20" viewBox="0 0 20 20" fill="none" xmlns="http://www.w3.org/2000/svg">
<path d="M13.3328 1.66602V3.33268H12.4995V6.03511C12.4995 6.99977 12.7088 7.95295 13.1131 8.82885L16.6808 16.5588C16.9701 17.1857 16.6965 17.9283 16.0697 18.2176C15.9054 18.2934 15.7268 18.3327 15.5458 18.3327H4.45312C3.76277 18.3327 3.20312 17.773 3.20312 17.0827C3.20312 16.9018 3.24238 16.7231 3.31818 16.5588L6.88588 8.82885C7.29013 7.95295 7.49949 6.99977 7.49949 6.03511V3.33268H6.66616V1.66602H13.3328ZM11.1561 8.33368H8.84292C8.756 8.63635 8.65192 8.93443 8.53092 9.22635L8.39917 9.52727L5.10366 16.666H14.8945L11.5998 9.52727C11.4212 9.14027 11.273 8.74118 11.1561 8.33368ZM9.16617 6.03511C9.16617 6.24623 9.15817 6.45693 9.14217 6.66674H10.8568C10.8491 6.56587 10.8433 6.46478 10.8393 6.36355L10.8328 6.03511V3.33268H9.16617V6.03511Z" fill="#16160B"/>
</svg>
