<svg width="20" height="20" viewBox="0 0 20 20" fill="none" xmlns="http://www.w3.org/2000/svg">
<path d="M10.9968 1.89025L13.7052 6.58122C13.9352 6.9798 13.7987 7.48946 13.4001 7.71957L12.3172 8.34386L13.1509 9.78794L11.7075 10.6213L10.8737 9.17719L9.79167 9.80294C9.39308 10.033 8.88342 9.89644 8.65333 9.49786L7.12183 6.84582C5.41152 7.36474 4.16667 8.95378 4.16667 10.8336C4.16667 11.3548 4.26233 11.8535 4.43706 12.3134C5.08267 11.9036 5.84702 11.6669 6.66667 11.6669C8.07007 11.6669 9.31142 12.3608 10.0664 13.4241L16.4734 9.72561L17.3068 11.169L10.7415 14.9594C10.8017 15.2414 10.8333 15.5338 10.8333 15.8336C10.8333 16.1192 10.8046 16.3981 10.7499 16.6675L17.5 16.6669V18.3336L3.33378 18.3346C2.81025 17.6381 2.5 16.7721 2.5 15.8336C2.5 14.9943 2.74818 14.2129 3.17517 13.5589C2.74397 12.7459 2.5 11.8183 2.5 10.8336C2.5 8.33752 4.06776 6.20762 6.27231 5.37484L5.94497 4.80692C5.48474 4.00977 5.75787 2.99045 6.55503 2.53021L8.72008 1.28021C9.51725 0.819973 10.5366 1.0931 10.9968 1.89025ZM6.66667 13.3336C5.28596 13.3336 4.16667 14.4529 4.16667 15.8336C4.16667 16.1258 4.21678 16.4063 4.30889 16.6669H9.02442C9.11658 16.4063 9.16667 16.1258 9.16667 15.8336C9.16667 14.4529 8.04737 13.3336 6.66667 13.3336ZM9.55342 2.72358L7.38835 3.97358L9.68 7.94287L11.8451 6.69287L9.55342 2.72358Z" fill="#16160B"/>
</svg>
