<svg width="20" height="20" viewBox="0 0 20 20" fill="none" xmlns="http://www.w3.org/2000/svg">
<path d="M11.25 1.66602C11.25 2.03622 11.0891 2.36884 10.8333 2.59772V4.16602H15C16.3807 4.16602 17.5 5.28531 17.5 6.66602V14.9993C17.5 16.3801 16.3807 17.4993 15 17.4993H5C3.61929 17.4993 2.5 16.3801 2.5 14.9993V6.66602C2.5 5.28531 3.61929 4.16602 5 4.16602H9.16667V2.59772C8.91092 2.36884 8.75 2.03622 8.75 1.66602C8.75 0.975657 9.30967 0.416016 10 0.416016C10.6903 0.416016 11.25 0.975657 11.25 1.66602ZM5 5.83268C4.53977 5.83268 4.16667 6.20578 4.16667 6.66602V14.9993C4.16667 15.4596 4.53977 15.8327 5 15.8327H15C15.4602 15.8327 15.8333 15.4596 15.8333 14.9993V6.66602C15.8333 6.20578 15.4602 5.83268 15 5.83268H10.8333H9.16667H5ZM1.66667 8.33268H0V13.3327H1.66667V8.33268ZM18.3333 8.33268H20V13.3327H18.3333V8.33268ZM7.5 12.0827C8.19036 12.0827 8.75 11.523 8.75 10.8327C8.75 10.1423 8.19036 9.58268 7.5 9.58268C6.80964 9.58268 6.25 10.1423 6.25 10.8327C6.25 11.523 6.80964 12.0827 7.5 12.0827ZM12.5 12.0827C13.1903 12.0827 13.75 11.523 13.75 10.8327C13.75 10.1423 13.1903 9.58268 12.5 9.58268C11.8097 9.58268 11.25 10.1423 11.25 10.8327C11.25 11.523 11.8097 12.0827 12.5 12.0827Z" fill="#16160B"/>
</svg>
