<svg width="20" height="20" viewBox="0 0 20 20" fill="none" xmlns="http://www.w3.org/2000/svg">
<path d="M11.8743 11.8743C12.8466 10.9021 13.3327 9.72157 13.3327 8.33268C13.3327 6.94379 12.8466 5.76324 11.8743 4.79102C10.9021 3.81879 9.72157 3.33268 8.33268 3.33268C6.94379 3.33268 5.76324 3.81879 4.79102 4.79102C3.81879 5.76324 3.33268 6.94379 3.33268 8.33268C3.33268 9.72157 3.81879 10.9021 4.79102 11.8743C5.76324 12.8466 6.94379 13.3327 8.33268 13.3327C9.72157 13.3327 10.9021 12.8466 11.8743 11.8743ZM7.45768 11.291L12.166 6.56185L10.9785 5.37435L7.45768 8.91602L5.68685 7.16602L4.49935 8.33268L7.45768 11.291ZM8.33268 14.9993C6.47157 14.9993 4.89518 14.3535 3.60352 13.0618C2.31185 11.7702 1.66602 10.1938 1.66602 8.33268C1.66602 6.47157 2.31185 4.89518 3.60352 3.60352C4.89518 2.31185 6.47157 1.66602 8.33268 1.66602C10.1938 1.66602 11.7702 2.31185 13.0618 3.60352C14.3535 4.89518 14.9993 6.47157 14.9993 8.33268C14.9993 9.11046 14.8778 9.8431 14.6348 10.5306C14.3917 11.2181 14.048 11.8466 13.6035 12.416L18.3327 17.166L17.166 18.3327L12.416 13.6035C11.8466 14.048 11.2181 14.3917 10.5306 14.6348C9.8431 14.8778 9.11046 14.9993 8.33268 14.9993Z" fill="#16160B"/>
</svg>
