<svg width="20" height="20" viewBox="0 0 20 20" fill="none" xmlns="http://www.w3.org/2000/svg">
<path d="M16.666 8.33269C16.4299 8.33269 16.2321 8.25268 16.0727 8.09268C15.9132 7.93268 15.8332 7.73491 15.8327 7.49935C15.8321 7.2638 15.9121 7.06602 16.0727 6.90602C16.2332 6.74602 16.431 6.66602 16.666 6.66602C16.901 6.66602 17.0991 6.74602 17.2602 6.90602C17.4213 7.06602 17.501 7.2638 17.4993 7.49935C17.4977 7.73491 17.4177 7.93296 17.2593 8.09352C17.101 8.25407 16.9032 8.3338 16.666 8.33269ZM8.33268 15.3327L6.72852 16.9369C6.57574 17.0896 6.3849 17.166 6.15602 17.166C5.92713 17.166 5.73602 17.0827 5.58268 16.916C5.41602 16.7632 5.33268 16.5724 5.33268 16.3435C5.33268 16.1146 5.41602 15.9166 5.58268 15.7494L8.33268 12.9994V11.666H6.99935L4.22852 14.4369C4.07574 14.5896 3.8849 14.666 3.65602 14.666C3.42713 14.666 3.23602 14.5827 3.08268 14.416C2.91602 14.2632 2.83268 14.0724 2.83268 13.8435C2.83268 13.6146 2.91602 13.4166 3.08268 13.2494L4.66602 11.666H2.47852C2.2424 11.666 2.04796 11.586 1.89518 11.426C1.7424 11.266 1.66602 11.0682 1.66602 10.8327C1.66602 10.5971 1.74602 10.3994 1.90602 10.2394C2.06602 10.0794 2.26379 9.99935 2.49935 9.99935H4.66602L3.06185 8.41602C2.90907 8.26324 2.83268 8.07241 2.83268 7.84352C2.83268 7.61463 2.91602 7.41657 3.08268 7.24935C3.23546 7.09657 3.42657 7.02019 3.65602 7.02019C3.88546 7.02019 4.08324 7.09657 4.24935 7.24935L6.99935 9.99935H8.33268V8.66602L5.56185 5.91602C5.40907 5.76324 5.33268 5.57241 5.33268 5.34352C5.33268 5.11463 5.41602 4.91657 5.58268 4.74935C5.73546 4.59657 5.92657 4.52019 6.15602 4.52019C6.38546 4.52019 6.58324 4.59657 6.74935 4.74935L8.33268 6.33268V4.16602C8.33268 3.92991 8.41268 3.73213 8.57268 3.57269C8.73268 3.41324 8.93046 3.33324 9.16602 3.33269C9.40157 3.33213 9.59963 3.41213 9.76018 3.57269C9.92074 3.73324 10.0005 3.93102 9.99935 4.16602V6.33268L11.5827 4.74935C11.7355 4.59657 11.9266 4.52019 12.156 4.52019C12.3855 4.52019 12.5832 4.59657 12.7493 4.74935C12.9021 4.91602 12.9785 5.1138 12.9785 5.34269C12.9785 5.57157 12.9021 5.76268 12.7493 5.91602L9.99935 8.66602V9.99935H15.8327C16.0688 9.99935 16.2668 10.0794 16.4268 10.2394C16.5868 10.3994 16.6666 10.5971 16.666 10.8327C16.6655 11.0682 16.5855 11.2663 16.426 11.4269C16.2666 11.5874 16.0688 11.6671 15.8327 11.666H13.666L15.2493 13.2702C15.4021 13.423 15.4785 13.6141 15.4785 13.8435C15.4785 14.073 15.4021 14.2638 15.2493 14.416C15.0827 14.5827 14.8849 14.666 14.656 14.666C14.4271 14.666 14.236 14.5827 14.0827 14.416L11.3327 11.666H9.99935V12.9994L12.7493 15.7702C12.9021 15.923 12.9785 16.1141 12.9785 16.3435C12.9785 16.573 12.9021 16.7638 12.7493 16.916C12.5827 17.0827 12.3849 17.166 12.156 17.166C11.9271 17.166 11.736 17.0827 11.5827 16.916L9.99935 15.3327V17.5202C9.99935 17.7563 9.91935 17.9507 9.75935 18.1035C9.59935 18.2563 9.40157 18.3327 9.16602 18.3327C8.93046 18.3327 8.73268 18.2527 8.57268 18.0927C8.41268 17.9327 8.33268 17.7349 8.33268 17.4994V15.3327ZM16.666 5.83268C16.4299 5.83268 16.2321 5.75296 16.0727 5.59352C15.9132 5.43407 15.8332 5.23602 15.8327 4.99935V2.49935C15.8327 2.26324 15.9127 2.06546 16.0727 1.90602C16.2327 1.74657 16.4305 1.66657 16.666 1.66602C16.9016 1.66546 17.0996 1.74546 17.2602 1.90602C17.4207 2.06657 17.5005 2.26435 17.4993 2.49935V5.02019C17.4993 5.2563 17.4193 5.45074 17.2593 5.60352C17.0993 5.7563 16.9016 5.83268 16.666 5.83268Z" fill="#16160B"/>
</svg>
