<svg width="20" height="20" viewBox="0 0 20 20" fill="none" xmlns="http://www.w3.org/2000/svg">
<path d="M18.0656 6.64959L16.8871 7.8281L15.1193 6.06033L13.3515 7.8281L16.2978 10.7744L15.1193 11.9529L14.5301 11.3636L9.22673 16.6669H4.51268L2.74491 18.4347L1.56641 17.2562L3.33417 15.4884V10.7744L8.63748 5.47108L8.04821 4.88182L9.22673 3.70331L12.173 6.64959L13.9407 4.88182L12.173 3.11406L13.3515 1.93555L18.0656 6.64959ZM13.3515 10.1851L9.81598 6.64959L8.63748 7.8281L10.4052 9.59586L9.22673 10.7744L7.45896 9.00661L6.28045 10.1851L8.04821 11.9529L6.86971 13.1314L5.10194 11.3636L5.00084 11.4648V15.0003H8.5364L13.3515 10.1851Z" fill="#16160B"/>
</svg>
