<svg width="20" height="20" viewBox="0 0 20 20" fill="none" xmlns="http://www.w3.org/2000/svg">
<path d="M9.99935 1.66612C10.4596 1.66612 10.8327 2.03921 10.8327 2.49945C10.8326 2.95966 10.4595 3.33278 9.99935 3.33278C6.31745 3.33278 3.33268 6.31755 3.33268 9.99946C3.33272 13.6813 6.31747 16.6661 9.99935 16.6661C13.6812 16.6661 16.6659 13.6813 16.666 9.99946C16.666 9.53921 17.0391 9.16613 17.4993 9.16613C17.9596 9.16613 18.3327 9.53921 18.3327 9.99946C18.3326 14.6018 14.6017 18.3328 9.99935 18.3328C5.39699 18.3328 1.66605 14.6018 1.66602 9.99946C1.66602 5.39708 5.39697 1.66612 9.99935 1.66612ZM9.99935 4.99945C10.4596 4.99945 10.8327 5.37254 10.8327 5.83278C10.8326 6.29299 10.4595 6.66612 9.99935 6.66612C8.15839 6.66612 6.66601 8.1585 6.66601 9.99946C6.66605 11.8404 8.15842 13.3328 9.99935 13.3328C11.8403 13.3328 13.3326 11.8404 13.3327 9.99946C13.3327 9.53921 13.7058 9.16613 14.166 9.16613C14.6263 9.16613 14.9993 9.53921 14.9993 9.99946C14.9993 12.7609 12.7608 14.9995 9.99935 14.9995C7.23794 14.9995 4.99938 12.7609 4.99935 9.99946C4.99935 7.23803 7.23792 4.99945 9.99935 4.99945ZM14.7128 1.74993C15.0383 1.4245 15.5666 1.4245 15.8921 1.74993C16.2172 2.07533 16.2173 2.60295 15.8921 2.92832L15.3021 3.5167L15.3029 3.51752C14.9774 3.84295 14.9774 4.37046 15.3029 4.6959C15.6284 5.02123 16.1558 5.0213 16.4813 4.6959L17.0704 4.10671C17.3959 3.78145 17.9234 3.78134 18.2489 4.10671C18.5743 4.43208 18.5741 4.95964 18.2489 5.28509L16.4813 7.05348C16.3251 7.20965 16.1129 7.29672 15.8921 7.29681H13.8803L10.5885 10.5886C10.2631 10.914 9.73552 10.914 9.41018 10.5886C9.08477 10.2632 9.08485 9.73571 9.41018 9.41029L12.7012 6.11924V4.10671C12.7012 3.88576 12.7891 3.67376 12.9453 3.51752L14.7128 1.74993Z" fill="#16160B"/>
</svg>
