<svg width="20" height="20" viewBox="0 0 20 20" fill="none" xmlns="http://www.w3.org/2000/svg">
<path d="M11.8223 2.29492V5.29159C11.8223 5.69742 11.9839 6.08742 12.2723 6.37492C12.5613 6.66273 12.9527 6.82425 13.3606 6.82409H16.7981" stroke="#16160B" stroke-width="1.5" stroke-linecap="round" stroke-linejoin="round"/>
<path d="M16.875 14.2802V7.14019C16.8678 6.79286 16.7876 6.45093 16.6396 6.13664C16.4916 5.82236 16.279 5.54275 16.0158 5.31602L13.5492 3.04769C13.0102 2.55991 12.3086 2.29095 11.5817 2.29352H6.82C6.35181 2.27597 5.88474 2.35083 5.44549 2.51383C5.00623 2.67684 4.6034 2.92479 4.26 3.24352C3.91688 3.56078 3.63995 3.94281 3.44515 4.36759C3.25035 4.79237 3.14155 5.2515 3.125 5.71852V14.2802C3.14176 14.7502 3.25176 15.2123 3.44861 15.6394C3.64545 16.0666 3.92522 16.4504 4.27167 16.7685C4.61946 17.0869 5.02668 17.3336 5.46998 17.4943C5.91328 17.6551 6.38395 17.7267 6.855 17.7052H13.18C13.6482 17.7227 14.1153 17.6479 14.5545 17.4849C14.9938 17.3219 15.3966 17.0739 15.74 16.7552C16.0831 16.4379 16.3601 16.0559 16.5548 15.6311C16.7496 15.2063 16.8585 14.7472 16.875 14.2802Z" stroke="#16160B" stroke-width="1.5" stroke-linecap="round" stroke-linejoin="round"/>
<path d="M10 8.75V14.395" stroke="#16160B" stroke-width="1.5" stroke-miterlimit="10" stroke-linecap="round"/>
<path d="M12.5888 11.1243L10.3679 8.9035C10.3199 8.85487 10.2627 8.81627 10.1996 8.78992C10.1365 8.76357 10.0688 8.75 10.0004 8.75C9.93208 8.75 9.86439 8.76357 9.80131 8.78992C9.73822 8.81627 9.681 8.85487 9.63294 8.9035L7.41211 11.1252" stroke="#16160B" stroke-width="1.5" stroke-linecap="round" stroke-linejoin="round"/>
</svg>
